<svg xmlns="http://www.w3.org/2000/svg" viewBox="0 0 128 128" role="img" aria-labelledby="title desc">
  <title id="title">AudRead Icon</title>
  <desc id="desc">Stylized book icon with sound waves.</desc>
  <defs>
    <linearGradient id="bg" x1="0%" y1="0%" x2="100%" y2="100%">
      <stop offset="0%" stop-color="#0ea5e9" />
      <stop offset="100%" stop-color="#0369a1" />
    </linearGradient>
  </defs>
  <rect x="12" y="12" width="104" height="104" rx="18" fill="url(#bg)" />
  <path d="M38 36h26a8 8 0 0 1 8 8v16a8 8 0 0 1-8 8H38z" fill="#f0f9ff" />
  <path d="M38 68h26a8 8 0 0 0 8-8v32a8 8 0 0 1-8 8H38z" fill="#bae6fd" />
  <path d="M78 50c6 4 9 9 9 14s-3 10-9 14" fill="none" stroke="#f0f9ff" stroke-width="6" stroke-linecap="round" />
  <path d="M90 42c8 6 12 13 12 22s-4 16-12 22" fill="none" stroke="#f0f9ff" stroke-width="6" stroke-linecap="round" opacity="0.7" />
</svg>
